<mxfile host="65bd71144e">
    <diagram id="3BUIkSe4TmH82JNZohW6" name="Page-1">
        <mxGraphModel dx="1177" dy="866" grid="1" gridSize="10" guides="1" tooltips="1" connect="1" arrows="1" fold="1" page="1" pageScale="1" pageWidth="850" pageHeight="1100" math="0" shadow="0">
            <root>
                <mxCell id="0"/>
                <mxCell id="1" parent="0"/>
                <mxCell id="2" value="" style="rounded=0;whiteSpace=wrap;html=1;" vertex="1" parent="1">
                    <mxGeometry x="40" y="120" width="720" height="480" as="geometry"/>
                </mxCell>
                <mxCell id="3" value="" style="rounded=0;whiteSpace=wrap;html=1;" vertex="1" parent="1">
                    <mxGeometry x="80" y="140" width="300" height="440" as="geometry"/>
                </mxCell>
                <mxCell id="4" value="" style="rounded=0;whiteSpace=wrap;html=1;" vertex="1" parent="1">
                    <mxGeometry x="425" y="140" width="300" height="440" as="geometry"/>
                </mxCell>
                <mxCell id="5" value="" style="rounded=0;whiteSpace=wrap;html=1;" vertex="1" parent="1">
                    <mxGeometry x="100" y="160" width="260" height="400" as="geometry"/>
                </mxCell>
                <mxCell id="6" value="&lt;h1&gt;Heading&lt;/h1&gt;&lt;p style=&quot;&quot;&gt;Lorem ipsum dolor sit amet, consectetur adipisicing elit, sed do eiusmod tempor incididunt ut labore et dolore magna aliqua.&lt;span style=&quot;background-color: initial;&quot;&gt;Lorem ipsum dolor sit amet, consectetur adipisicing elit, sed do eiusmod tempor incididunt ut labore et dolore magna aliqua0&lt;/span&gt;&lt;/p&gt;Lorem ipsum dolor sit amet, consectetur adipisicing elit, sed do eiusmod tempor incididunt ut labore et dolore magna aliqua&lt;p&gt;&lt;span style=&quot;background-color: initial;&quot;&gt;&lt;br&gt;&lt;/span&gt;&lt;/p&gt;" style="text;html=1;strokeColor=none;fillColor=none;spacing=5;spacingTop=-20;whiteSpace=wrap;overflow=hidden;rounded=0;" vertex="1" parent="1">
                    <mxGeometry x="440" y="250" width="270" height="200" as="geometry"/>
                </mxCell>
                <mxCell id="10" value="Title" style="text;strokeColor=none;fillColor=none;html=1;fontSize=24;fontStyle=1;verticalAlign=middle;align=center;rounded=0;" vertex="1" parent="1">
                    <mxGeometry x="425" y="200" width="80" height="40" as="geometry"/>
                </mxCell>
                <mxCell id="11" value="Primary" style="rounded=0;fillColor=#0057D8;strokeColor=none;html=1;fontColor=#ffffff;align=center;verticalAlign=middle;fontStyle=0;fontSize=12;" vertex="1" parent="1">
                    <mxGeometry x="440" y="460" width="86" height="33" as="geometry"/>
                </mxCell>
                <mxCell id="12" value="" style="outlineConnect=0;fontColor=#232F3E;gradientColor=none;fillColor=#D45B07;strokeColor=none;dashed=0;verticalLabelPosition=bottom;verticalAlign=top;align=right;html=1;fontSize=12;fontStyle=0;aspect=fixed;pointerEvents=1;shape=mxgraph.aws4.container_registry_image;rounded=0;" vertex="1" parent="1">
                    <mxGeometry x="105" y="235" width="250" height="250" as="geometry"/>
                </mxCell>
                <mxCell id="13" value="&lt;b&gt;&lt;font style=&quot;font-size: 20px&quot;&gt;Card title&lt;/font&gt;&lt;/b&gt;&lt;br&gt;&lt;br&gt;This is a wider card with supporting text below as a natural lead-in to additional content. This content is a little bit longer." style="html=1;shadow=0;dashed=0;shape=mxgraph.bootstrap.rrect;rSize=5;strokeColor=#DFDFDF;html=1;whiteSpace=wrap;fillColor=#ffffff;fontColor=#000000;verticalAlign=top;align=left;spacing=20;spacingBottom=0;fontSize=14;spacingTop=160;" vertex="1" parent="1">
                    <mxGeometry width="260" height="360" relative="1" as="geometry">
                        <mxPoint x="20" y="700" as="offset"/>
                    </mxGeometry>
                </mxCell>
                <mxCell id="14" value="Image cap" style="html=1;shadow=0;dashed=0;shape=mxgraph.bootstrap.topButton;rSize=5;perimeter=none;whiteSpace=wrap;fillColor=#868E96;strokeColor=#DFDFDF;fontColor=#DEE2E6;resizeWidth=1;fontSize=18;" vertex="1" parent="13">
                    <mxGeometry width="260" height="160" relative="1" as="geometry"/>
                </mxCell>
                <mxCell id="19" value="Success" style="html=1;shadow=0;dashed=0;shape=mxgraph.bootstrap.rrect;rSize=5;strokeColor=none;strokeWidth=1;fillColor=#33A64C;fontColor=#FFFFFF;whiteSpace=wrap;align=center;verticalAlign=middle;spacingLeft=0;fontStyle=0;fontSize=16;spacing=5;" vertex="1" parent="13">
                    <mxGeometry x="20" y="300" width="90" height="40" as="geometry"/>
                </mxCell>
                <mxCell id="15" value="&lt;b&gt;&lt;font style=&quot;font-size: 20px&quot;&gt;Card title&lt;/font&gt;&lt;/b&gt;&lt;br&gt;&lt;br&gt;This card has supporting text below as a natural lead-in to additional content.&lt;br&gt;&lt;br&gt;" style="html=1;shadow=0;dashed=0;shape=mxgraph.bootstrap.rrect;rSize=5;strokeColor=#DFDFDF;html=1;whiteSpace=wrap;fillColor=#ffffff;fontColor=#000000;verticalAlign=top;align=left;spacing=20;spacingBottom=0;fontSize=14;spacingTop=160;" vertex="1" parent="1">
                    <mxGeometry x="295" y="700" width="260" height="360" as="geometry"/>
                </mxCell>
                <mxCell id="16" value="Image cap" style="html=1;shadow=0;dashed=0;shape=mxgraph.bootstrap.topButton;rSize=5;perimeter=none;whiteSpace=wrap;fillColor=#868E96;strokeColor=#DFDFDF;fontColor=#DEE2E6;resizeWidth=1;fontSize=18;" vertex="1" parent="15">
                    <mxGeometry width="260" height="160" relative="1" as="geometry"/>
                </mxCell>
                <mxCell id="20" value="Success" style="html=1;shadow=0;dashed=0;shape=mxgraph.bootstrap.rrect;rSize=5;strokeColor=none;strokeWidth=1;fillColor=#33A64C;fontColor=#FFFFFF;whiteSpace=wrap;align=center;verticalAlign=middle;spacingLeft=0;fontStyle=0;fontSize=16;spacing=5;" vertex="1" parent="15">
                    <mxGeometry x="25" y="300" width="90" height="40" as="geometry"/>
                </mxCell>
                <mxCell id="17" value="&lt;b&gt;&lt;font style=&quot;font-size: 20px&quot;&gt;Card title&lt;/font&gt;&lt;/b&gt;&lt;br&gt;&lt;br&gt;This is a wider card with supporting text below as a natural lead-in to additional content. This card has even longer content than the first to" style="html=1;shadow=0;dashed=0;shape=mxgraph.bootstrap.rrect;rSize=5;strokeColor=#DFDFDF;html=1;whiteSpace=wrap;fillColor=#ffffff;fontColor=#000000;verticalAlign=top;align=left;spacing=20;spacingBottom=0;fontSize=14;spacingTop=160;" vertex="1" parent="1">
                    <mxGeometry x="570" y="700" width="260" height="360" as="geometry"/>
                </mxCell>
                <mxCell id="18" value="Image cap" style="html=1;shadow=0;dashed=0;shape=mxgraph.bootstrap.topButton;rSize=5;perimeter=none;whiteSpace=wrap;fillColor=#868E96;strokeColor=#DFDFDF;fontColor=#DEE2E6;resizeWidth=1;fontSize=18;" vertex="1" parent="17">
                    <mxGeometry width="260" height="160" relative="1" as="geometry"/>
                </mxCell>
                <mxCell id="21" value="Success" style="html=1;shadow=0;dashed=0;shape=mxgraph.bootstrap.rrect;rSize=5;strokeColor=none;strokeWidth=1;fillColor=#33A64C;fontColor=#FFFFFF;whiteSpace=wrap;align=center;verticalAlign=middle;spacingLeft=0;fontStyle=0;fontSize=16;spacing=5;" vertex="1" parent="17">
                    <mxGeometry x="25" y="300" width="90" height="40" as="geometry"/>
                </mxCell>
                <mxCell id="22" value="" style="edgeStyle=none;html=1;" edge="1" parent="1" source="20" target="13">
                    <mxGeometry relative="1" as="geometry"/>
                </mxCell>
                <mxCell id="23" value="" style="edgeStyle=none;html=1;" edge="1" parent="1" source="20" target="13">
                    <mxGeometry relative="1" as="geometry"/>
                </mxCell>
            </root>
        </mxGraphModel>
    </diagram>
</mxfile>